<?xml version="1.0" encoding="utf-8"?>
<!-- Generator: Adobe Illustrator 16.0.0, SVG Export Plug-In . SVG Version: 6.00 Build 0)  -->
<!DOCTYPE svg PUBLIC "-//W3C//DTD SVG 1.1//EN" "http://www.w3.org/Graphics/SVG/1.1/DTD/svg11.dtd">
<svg version="1.1" id="Layer_1" xmlns="http://www.w3.org/2000/svg" xmlns:xlink="http://www.w3.org/1999/xlink" x="0px" y="0px"
	 width="491.975px" height="193.491px" viewBox="0 0 491.975 193.491" enable-background="new 0 0 491.975 193.491"
	 xml:space="preserve">
<rect x="49.758" y="45.271" fill="#363B97" width="188.002" height="108"/>
<g>
	<path fill="#FFFFFF" d="M79.952,102.473l1.758-0.367c1.708-0.39,3.32-0.89,4.834-1.501c1.513-0.61,2.82-1.513,3.918-2.71
		c1.099-1.195,1.965-2.771,2.6-4.725c0.634-1.951,0.952-4.441,0.952-7.471c0-4.541-1.025-7.848-3.076-9.924
		c-2.051-2.074-4.737-3.113-8.057-3.113c-0.831,0-1.673,0.025-2.527,0.074c-0.855,0.049-1.747,0.146-2.673,0.293v60.717H64.645
		V66.584c1.366-0.098,2.856-0.195,4.468-0.293s3.283-0.184,5.017-0.257c1.732-0.073,3.466-0.121,5.2-0.146
		c1.732-0.024,3.406-0.036,5.017-0.036c3.955,0,7.385,0.451,10.291,1.354c2.904,0.904,5.31,2.187,7.214,3.845
		c1.904,1.661,3.32,3.676,4.248,6.043c0.927,2.369,1.392,5.043,1.392,8.02c0,3.126-0.513,6.056-1.538,8.789
		c-1.025,2.736-2.6,5.127-4.724,7.178s-4.834,3.662-8.13,4.834s-7.214,1.758-11.755,1.758h-0.586L79.952,102.473z"/>
	<path fill="#FFFFFF" d="M137.447,134.625c-7.324,0-12.927-1.988-16.809-5.969c-3.882-3.979-5.823-9.803-5.823-17.469
		c0-3.612,0.476-6.871,1.428-9.777c0.952-2.904,2.38-5.371,4.285-7.397c1.904-2.025,4.272-3.589,7.104-4.688
		c2.831-1.099,6.103-1.647,9.814-1.647c7.471,0,13.11,2.026,16.919,6.078c3.809,4.055,5.713,9.814,5.713,17.285
		c0,3.662-0.476,6.948-1.428,9.852c-0.952,2.906-2.38,5.371-4.285,7.396c-1.904,2.027-4.273,3.59-7.104,4.688
		C144.429,134.077,141.157,134.625,137.447,134.625z M128.146,111.115c0,5.909,0.707,10.254,2.124,13.038
		c1.416,2.783,3.783,4.174,7.104,4.174c1.269,0,2.465-0.109,3.589-0.33c1.123-0.219,2.051-0.549,2.783-0.988
		c0.487-0.244,0.916-0.842,1.282-1.795c0.366-0.951,0.683-2.135,0.952-3.551c0.268-1.416,0.463-3.027,0.586-4.834
		c0.121-1.807,0.183-3.687,0.183-5.641c0-5.76-0.721-10.07-2.161-12.927c-1.441-2.856-3.772-4.284-6.995-4.284
		c-1.221,0-2.417,0.122-3.589,0.365c-1.172,0.246-2.197,0.636-3.076,1.172c-0.489,0.293-0.916,0.904-1.282,1.832
		s-0.659,2.1-0.879,3.516s-0.379,3.002-0.476,4.76C128.193,107.379,128.146,109.211,128.146,111.115z"/>
	<path fill="#FFFFFF" d="M197.506,98.811c-0.978-0.342-2.027-0.623-3.149-0.843c-1.124-0.22-2.197-0.329-3.223-0.329
		c-0.732,0-1.392,0.062-1.978,0.183c-0.586,0.122-1.135,0.329-1.648,0.622s-1.025,0.686-1.538,1.172
		c-0.513,0.489-1.087,1.075-1.721,1.758v32.374h-12.817V88.629h11.499l1.099,7.178h0.073c0.341-0.536,0.756-1.158,1.245-1.867
		c0.487-0.707,1.013-1.416,1.575-2.124c0.561-0.707,1.146-1.354,1.758-1.94c0.61-0.586,1.232-1,1.868-1.246
		c1.123-0.39,2.392-0.646,3.809-0.769c1.416-0.121,2.954-0.183,4.614-0.183L197.506,98.811z"/>
	<path fill="#FFFFFF" d="M207.54,94.855l-4.834-1.611v-2.711l13.896-9.814h3.536l0.146,7.91h13.696l-0.586,4.98
		c-1.025,0.196-2.283,0.367-3.772,0.514c-1.49,0.146-2.918,0.269-4.285,0.365c-1.611,0.146-3.272,0.293-4.98,0.439v25.342
		c0,1.611,0.293,2.967,0.879,4.064c0.586,1.1,1.806,1.648,3.662,1.648c0.487,0,1.146-0.023,1.978-0.072
		c0.83-0.049,1.696-0.121,2.6-0.221c0.903-0.098,1.782-0.207,2.637-0.33c0.854-0.121,1.575-0.23,2.161-0.328v3.734
		c-1.075,0.686-2.32,1.381-3.735,2.088c-1.417,0.709-2.918,1.344-4.504,1.904c-1.587,0.563-3.188,1.012-4.802,1.355
		c-1.615,0.34-3.159,0.512-4.632,0.512c-1.129,0-2.234-0.109-3.314-0.33c-1.081-0.219-2.051-0.646-2.91-1.281
		c-0.859-0.633-1.547-1.525-2.063-2.674c-0.516-1.146-0.773-2.646-0.773-4.504V94.855z"/>
	<path d="M275.143,98.297c-1.611-0.829-3.529-1.635-5.75-2.416c-2.223-0.781-4.627-1.172-7.215-1.172
		c-1.074,0-2.148,0.11-3.223,0.332c-1.074,0.221-2.002,0.624-2.783,1.213c-0.879,0.639-1.587,2.146-2.123,4.524
		c-0.539,2.38-0.807,6.095-0.807,11.146c0,2.798,0.195,5.164,0.586,7.101s0.977,3.508,1.758,4.709s1.758,2.059,2.93,2.574
		s2.515,0.773,4.029,0.773c2.391,0,4.881-0.258,7.471-0.77c2.587-0.514,4.931-1.209,7.031-2.088l1.172,3.291
		c-2.49,2.031-5.336,3.725-8.533,5.078c-3.199,1.354-6.701,2.031-10.51,2.031c-2.687,0-5.213-0.402-7.581-1.209
		c-2.369-0.805-4.407-2.086-6.116-3.844c-1.71-1.758-3.065-4.053-4.065-6.885c-1.001-2.832-1.501-6.273-1.501-10.329
		c0-3.855,0.524-7.311,1.575-10.363c1.049-3.051,2.575-5.64,4.578-7.764c2.001-2.124,4.492-3.746,7.47-4.871
		c2.979-1.122,6.396-1.684,10.254-1.684c2.344,0,4.699,0.169,7.068,0.508c2.367,0.338,4.528,0.725,6.482,1.159L275.143,98.297z"/>
	<path d="M299.752,88.629v30.25c0,2.686,0.43,4.676,1.293,5.969c0.863,1.295,2.328,1.941,4.398,1.941c0.74,0,1.553-0.111,2.439-0.33
		c0.887-0.221,1.799-0.514,2.734-0.879c0.937-0.367,1.835-0.781,2.697-1.246c0.863-0.463,1.664-0.963,2.404-1.5V88.629h12.816
		v45.118h-11.498l-1.172-5.273h-0.146c-0.879,0.586-1.941,1.234-3.187,1.941c-1.245,0.709-2.589,1.391-4.028,2.051
		c-1.441,0.658-2.955,1.209-4.541,1.648c-1.588,0.439-3.139,0.658-4.65,0.658c-1.711,0-3.309-0.281-4.798-0.842
		c-1.49-0.561-2.796-1.393-3.919-2.49c-1.123-1.1-2.014-2.49-2.673-4.176c-0.659-1.684-0.989-3.625-0.989-5.822V88.629H299.752z"/>
	<path d="M355.783,133.747h-12.818V59.771l12.818-2.637V133.747z"/>
	<path d="M383.029,133.747H370.21V59.771l12.818-2.637V133.747z"/>
	<path d="M403.609,63.068l8.131,8.422l-8.131,8.496l-8.057-8.496L403.609,63.068z M410.275,133.747h-12.818V88.629h12.818V133.747z"
		/>
	<path d="M455.171,118.879c0,2.539-0.525,4.627-1.574,6.262c-1.051,1.637-2.283,3.064-3.699,4.285
		c-0.732,0.635-1.514,1.27-2.344,1.904s-1.758,1.197-2.783,1.684c-1.025,0.488-2.197,0.879-3.516,1.172s-2.855,0.439-4.613,0.439
		c-3.176,0-6.068-0.33-8.68-0.988c-2.613-0.66-5.066-1.721-7.361-3.186l3.15-8.424c0.977,0.586,2.014,1.246,3.113,1.979
		c1.098,0.732,2.27,1.404,3.516,2.014c1.244,0.611,2.551,1.123,3.918,1.537c1.365,0.416,2.758,0.623,4.174,0.623
		c0.977,0,1.869-0.072,2.674-0.219c0.807-0.146,1.477-0.414,2.014-0.807c0.439-0.34,0.77-0.963,0.99-1.867
		c0.219-0.902,0.328-1.988,0.328-3.26c0-1.465-0.549-2.623-1.646-3.479c-1.1-0.854-2.48-1.6-4.139-2.234
		c-1.66-0.633-3.443-1.27-5.348-1.905c-1.904-0.633-3.688-1.476-5.346-2.526c-1.66-1.05-3.039-2.392-4.139-4.028
		c-1.098-1.635-1.648-3.796-1.648-6.482c0-1.758,0.537-3.502,1.611-5.236c1.074-1.732,2.246-3.16,3.516-4.285
		c1.563-1.415,3.297-2.465,5.201-3.148s4.102-1.025,6.592-1.025c2.098,0,4.32,0.122,6.664,0.365
		c2.344,0.246,4.541,0.514,6.592,0.807l-1.391,8.936c-1.025-0.342-2.137-0.684-3.332-1.025c-1.197-0.342-2.381-0.66-3.553-0.953
		s-2.307-0.523-3.406-0.695c-1.098-0.17-2.088-0.256-2.967-0.256c-1.123,0-1.977,0.062-2.563,0.183
		c-0.586,0.122-1.051,0.282-1.393,0.476c-0.293,0.196-0.525,0.611-0.695,1.246c-0.172,0.635-0.256,1.294-0.256,1.977
		c0,1.368,0.549,2.443,1.648,3.223c1.098,0.782,2.477,1.479,4.137,2.088c1.66,0.611,3.455,1.245,5.385,1.904
		c1.928,0.659,3.723,1.502,5.383,2.527c1.658,1.025,3.039,2.355,4.139,3.991C454.623,114.106,455.171,116.243,455.171,118.879z"/>
</g>
<g>
	<rect x="64.638" y="132.043" fill="#FFFFFF" width="13.053" height="7.508"/>
	<g>
		<path fill="#FFFFFF" d="M71.164,137.981c4.092-4.074,12.184-6.018,17.797-6.178c-7.538,5.588-14.111,12.85-17.797,21.633
			c-3.529-8.783-10.501-15.725-17.797-21.633C59.378,132.284,66.675,133.747,71.164,137.981z"/>
	</g>
</g>
<g>
	<rect x="397.454" y="131.963" width="12.834" height="7.508"/>
	<g>
		<path d="M403.87,137.901c4.023-4.074,11.978-6.018,17.495-6.178c-7.41,5.588-13.871,12.85-17.495,21.633
			c-3.468-8.783-10.323-15.725-17.494-21.633C392.285,132.204,399.458,133.667,403.87,137.901z"/>
	</g>
</g>
</svg>
